HIERARCHY
ROOT Hips
{
	OFFSET 0.000000 88.474243 0.000000
	CHANNELS 6 Xposition Yposition Zposition Zrotation Yrotation Xrotation 
	JOINT Hips_Spine
	{
		OFFSET 0.000000 0.000000 0.000000
		CHANNELS 3 Zrotation Yrotation Xrotation
		JOINT Spine
		{
			OFFSET 0.005100 8.711998 -0.691000
			CHANNELS 3 Zrotation Yrotation Xrotation
			JOINT Spine1
			{
				OFFSET -0.009200 8.660301 -1.275000
				CHANNELS 3 Zrotation Yrotation Xrotation
				JOINT Spine2
				{
					OFFSET 0.006300 9.852501 -1.857000
					CHANNELS 3 Zrotation Yrotation Xrotation
					JOINT Spine2_Neck
					{
						OFFSET 0.000000 0.000000 0.000000
						CHANNELS 3 Zrotation Yrotation Xrotation
						JOINT Neck
						{
							OFFSET 0.016300 11.420799 -0.263300
							CHANNELS 3 Zrotation Yrotation Xrotation
							End Site #name: Head
							{
								OFFSET -0.019200 9.262405 2.362500
							}
						}
					}
					JOINT Spine2_LeftShoulder
					{
						OFFSET 0.000000 0.000000 0.000000
						CHANNELS 3 Zrotation Yrotation Xrotation
						JOINT LeftShoulder
						{
							OFFSET 5.616900 6.732201 -0.345700
							CHANNELS 3 Zrotation Yrotation Xrotation
							JOINT LeftArm
							{
								OFFSET 10.664888 -0.183372 -2.440700
								CHANNELS 3 Zrotation Yrotation Xrotation
								JOINT LeftForeArm
								{
									OFFSET 27.459126 0.000000 0.000000
									CHANNELS 3 Zrotation Yrotation Xrotation
									End Site #name: LeftHand
									{
										OFFSET 21.306858 0.000000 0.000000
									}
								}
							}
						}
					}
					JOINT Spine2_RightShoulder
					{
						OFFSET 0.000000 0.000000 0.000000
						CHANNELS 3 Zrotation Yrotation Xrotation
						JOINT RightShoulder
						{
							OFFSET -5.580300 6.737503 -0.344400
							CHANNELS 3 Zrotation Yrotation Xrotation
							JOINT RightArm
							{
								OFFSET -10.679335 -0.188484 -2.383900
								CHANNELS 3 Zrotation Yrotation Xrotation
								JOINT RightForeArm
								{
									OFFSET -27.503529 0.000000 0.000000
									CHANNELS 3 Zrotation Yrotation Xrotation
									End Site #name: RightHand
									{
										OFFSET -21.306808 0.000000 0.000000
									}
								}
							}
						}
					}
				}
			}
		}
	}
	JOINT Hips_LeftUpLeg
	{
		OFFSET 0.000000 0.000000 0.000000
		CHANNELS 3 Zrotation Yrotation Xrotation
		JOINT LeftUpLeg
		{
			OFFSET 6.857700 -6.739601 0.312100
			CHANNELS 3 Zrotation Yrotation Xrotation
			JOINT LeftLeg
			{
				OFFSET -0.367590 -34.731552 -4.572400
				CHANNELS 3 Zrotation Yrotation Xrotation
				End Site #name: LeftFoot
				{
					OFFSET 0.367590 -34.656704 -6.067400
				}
			}
		}
	}
	JOINT Hips_RightUpLeg
	{
		OFFSET 0.000000 0.000000 0.000000
		CHANNELS 3 Zrotation Yrotation Xrotation
		JOINT RightUpLeg
		{
			OFFSET -6.876100 -6.733299 0.301000
			CHANNELS 3 Zrotation Yrotation Xrotation
			JOINT RightLeg
			{
				OFFSET 0.347353 -34.795158 -4.515900
				CHANNELS 3 Zrotation Yrotation Xrotation
				End Site #name: RightFoot
				{
					OFFSET -0.347353 -34.589367 -6.070300
				}
			}
		}
	}
}
MOTION
Frames: 14
Frame Time: 0.041667
4.744599 0.641566 1.693806 -3.948733 -9.064261 -0.890510 0.000000 0.000000 -0.000000 -0.203571 0.537064 4.505869 -0.874268 1.253297 8.747269 0.000000 0.000000 0.000000 -0.830441 1.177101 8.656412 1.245868 -2.226450 3.182457 -0.887018 1.236206 8.586965 3.060022 0.856721 0.375588 -74.009072 -11.531193 26.899130 179.405060 -87.254118 -179.525299 -0.797147 1.206772 8.585001 -3.742785 -2.259627 0.994916 78.703651 -9.221157 5.396883 -176.753401 83.179448 -177.082975 -0.000000 -0.000000 0.000000 1.602383 1.164446 -20.474560 -0.744848 0.629744 28.196959 0.000000 0.000000 -0.000000 -8.267863 0.227123 -15.530070 0.215512 -0.828567 18.240190 
4.914330 0.649698 1.720315 -3.941231 -9.287410 -0.847841 -0.000000 0.000000 -0.000000 -0.206278 0.545770 4.460454 -0.846106 1.249617 8.687755 0.000000 0.000000 0.000000 -0.809745 1.173640 8.586474 1.034965 -2.471941 3.246208 -0.868215 1.237461 8.513478 3.036735 0.822117 0.383902 -74.082639 -11.162750 26.808058 179.644900 -87.338813 -179.764910 -0.777827 1.193388 8.506428 -3.729416 -2.208006 0.995291 78.793759 -9.370465 5.133355 -176.648641 83.183806 -176.986418 -0.000000 -0.000000 -0.000000 1.421491 1.156919 -20.348776 -0.763991 0.603321 27.812679 -0.000000 0.000000 -0.000000 -8.373952 0.411009 -15.578114 0.197385 -0.824152 18.025322 
5.067349 0.656122 1.743807 -3.934492 -9.481605 -0.807481 -0.000000 0.000000 -0.000000 -0.210478 0.560643 4.434542 -0.818337 1.247781 8.641774 0.000000 0.000000 0.000000 -0.791142 1.168599 8.504308 0.934013 -2.665275 3.311169 -0.851671 1.240174 8.448635 3.002757 0.785727 0.392859 -74.153488 -10.816256 26.716818 179.686315 -87.412189 -179.809974 -0.761491 1.183403 8.432796 -3.724785 -2.161556 0.998450 78.900800 -9.504704 4.887492 -176.529271 83.198042 -176.876994 -0.000000 -0.000000 -0.000000 1.253101 1.145398 -20.221425 -0.781162 0.589220 27.455400 -0.000000 0.000000 -0.000000 -8.489008 0.564445 -15.615601 0.187981 -0.816021 17.882380 
5.201949 0.661077 1.762085 -3.922610 -9.660048 -0.768786 -0.000000 0.000000 -0.000000 -0.218489 0.579787 4.408395 -0.794342 1.246440 8.600202 0.000000 0.000000 0.000000 -0.772839 1.166061 8.423090 0.849990 -2.821919 3.368997 -0.836373 1.242698 8.392601 2.963453 0.748942 0.403891 -74.224404 -10.498366 26.586685 179.653828 -87.487958 -179.782198 -0.746718 1.175408 8.368010 -3.717398 -2.111331 1.000605 78.986087 -9.637370 4.689350 -176.407533 83.243606 -176.769567 -0.000000 -0.000000 -0.000000 1.095126 1.136389 -20.088919 -0.795089 0.584360 27.132184 -0.000000 0.000000 -0.000000 -8.606625 0.681294 -15.657029 0.187740 -0.797887 17.840150 
5.316174 0.663983 1.772508 -3.901683 -9.836906 -0.736577 -0.000000 0.000000 -0.000000 -0.226565 0.597840 4.375481 -0.771375 1.243846 8.556846 0.000000 0.000000 0.000000 -0.754749 1.168011 8.349245 0.792568 -2.922797 3.406459 -0.821150 1.246893 8.343514 2.927845 0.718865 0.417925 -74.295413 -10.210012 26.421320 179.568865 -87.589316 -179.704613 -0.733108 1.170650 8.309993 -3.719279 -2.069932 1.004702 79.025693 -9.778407 4.542974 -176.317200 83.283738 -176.690515 -0.000000 -0.000000 -0.000000 0.941549 1.129683 -19.960743 -0.802984 0.593726 26.873974 -0.000000 0.000000 -0.000000 -8.721178 0.772963 -15.695115 0.199995 -0.773550 17.865247 
5.406573 0.664838 1.773597 -3.863602 -9.980850 -0.707217 -0.000000 0.000000 -0.000000 -0.234247 0.610312 4.341707 -0.749973 1.242333 8.515047 0.000000 0.000000 0.000000 -0.737332 1.171284 8.284733 0.766876 -2.952701 3.432937 -0.805985 1.252708 8.304140 2.905866 0.703756 0.431486 -74.355534 -9.982396 26.227326 179.503475 -87.678590 -179.648506 -0.720722 1.167319 8.260073 -3.732935 -2.054494 1.008827 79.034422 -9.951658 4.420213 -176.245286 83.307708 -176.630058 -0.000000 -0.000000 -0.000000 0.795912 1.119817 -19.854708 -0.807625 0.613569 26.676846 -0.000000 0.000000 -0.000000 -8.841851 0.842941 -15.728199 0.217332 -0.744588 17.936918 
5.467597 0.665095 1.768921 -3.799642 -10.126362 -0.669315 0.000000 0.000000 -0.000000 -0.236313 0.622415 4.309333 -0.730090 1.238997 8.476609 0.000000 0.000000 0.000000 -0.720320 1.177313 8.238680 0.756138 -2.960413 3.436246 -0.792572 1.260272 8.273843 2.893400 0.699391 0.446354 -74.418118 -9.782593 26.029845 179.487415 -87.753666 -179.640309 -0.709358 1.165955 8.224530 -3.740658 -2.035909 1.013462 78.981287 -10.124050 4.346915 -176.207949 83.338580 -176.599644 -0.000000 -0.000000 -0.000000 0.670413 1.114960 -19.764298 -0.802723 0.642390 26.543165 -0.000000 0.000000 -0.000000 -8.966926 0.913479 -15.761985 0.246351 -0.719568 18.024885 
5.493660 0.665236 1.761195 -3.711357 -10.331626 -0.625267 0.000000 0.000000 -0.000000 -0.232489 0.636350 4.294687 -0.712897 1.236484 8.443975 0.000000 0.000000 0.000000 -0.704209 1.184954 8.202593 0.762502 -2.942994 3.413431 -0.778925 1.268776 8.251282 2.892706 0.704464 0.458122 -74.461783 -9.618225 25.853742 179.443374 -87.816754 -179.600968 -0.699195 1.166343 8.199991 -3.758362 -2.029979 1.015378 78.894795 -10.323777 4.282538 -176.231411 83.315569 -176.624691 -0.000000 -0.000000 -0.000000 0.568672 1.110074 -19.713360 -0.786580 0.676166 26.483514 -0.000000 0.000000 -0.000000 -9.112435 0.959405 -15.807721 0.285478 -0.703406 18.098495 
5.479039 0.665668 1.752226 -3.610444 -10.541248 -0.594211 0.000000 0.000000 -0.000000 -0.224444 0.654826 4.293003 -0.697145 1.235774 8.412058 0.000000 0.000000 0.000000 -0.688059 1.193844 8.172127 0.783664 -2.902887 3.371309 -0.766066 1.279236 8.235996 2.903724 0.719287 0.468614 -74.490187 -9.470591 25.701219 179.375049 -87.884931 -179.536307 -0.689589 1.169271 8.181743 -3.780740 -2.023947 1.015174 78.792701 -10.510487 4.243967 -176.288084 83.271989 -176.683517 -0.000000 -0.000000 -0.000000 0.487672 1.107651 -19.678273 -0.763199 0.711127 26.484098 -0.000000 0.000000 -0.000000 -9.261407 0.971358 -15.839144 0.324896 -0.694443 18.143120 
5.419970 0.667588 1.744672 -3.485474 -10.709376 -0.585162 0.000000 0.000000 -0.000000 -0.213609 0.675889 4.300511 -0.685947 1.234340 8.378151 0.000000 0.000000 0.000000 -0.671753 1.205404 8.148632 0.818105 -2.838219 3.308177 -0.753288 1.291633 8.223276 2.916963 0.736069 0.475734 -74.506602 -9.333572 25.579027 179.079798 -87.987678 -179.248919 -0.681838 1.174488 8.175623 -3.796253 -2.016728 1.015072 78.688809 -10.641200 4.229442 -176.368954 83.194612 -176.765176 -0.000000 -0.000000 -0.000000 0.427259 1.102476 -19.641849 -0.735308 0.743967 26.517250 -0.000000 0.000000 -0.000000 -9.386694 0.965973 -15.842220 0.362429 -0.686680 18.156162 
5.311839 0.672487 1.741412 -3.344068 -10.814605 -0.599551 0.000000 0.000000 -0.000000 -0.199061 0.692006 4.323718 -0.677271 1.233776 8.338715 0.000000 0.000000 0.000000 -0.656128 1.218105 8.130422 0.857077 -2.758601 3.238483 -0.742819 1.305812 8.216628 2.942525 0.759894 0.478602 -74.536007 -9.188807 25.480074 178.656103 -88.111463 -178.835090 -0.674780 1.182283 8.174778 -3.815560 -2.009161 1.013926 78.592600 -10.737979 4.211959 -176.469386 83.107959 -176.863861 -0.000000 -0.000000 -0.000000 0.392663 1.103911 -19.583461 -0.708817 0.768682 26.543716 -0.000000 0.000000 -0.000000 -9.469212 0.958702 -15.823800 0.390052 -0.683186 18.146558 
5.150086 0.680823 1.745521 -3.191925 -10.853425 -0.644477 0.000000 0.000000 -0.000000 -0.183334 0.701922 4.353006 -0.669020 1.233481 8.299849 0.000000 0.000000 0.000000 -0.640545 1.232645 8.111916 0.897364 -2.669699 3.162117 -0.732516 1.320356 8.209451 2.969795 0.783584 0.480046 -74.577030 -9.029514 25.375602 178.219071 -88.248037 -178.402074 -0.668710 1.191795 8.178320 -3.839923 -2.016026 1.010768 78.517658 -10.786356 4.210676 -176.547641 83.010329 -176.944655 -0.000000 -0.000000 -0.000000 0.380965 1.108476 -19.498478 -0.686751 0.784323 26.553169 0.000000 0.000000 -0.000000 -9.493676 0.950081 -15.773186 0.414001 -0.678583 18.086004 
4.928620 0.693246 1.760491 -3.029255 -10.801477 -0.723655 0.000000 0.000000 -0.000000 -0.167759 0.706130 4.390744 -0.662278 1.232563 8.256610 0.000000 0.000000 0.000000 -0.626078 1.246953 8.092478 0.942953 -2.573148 3.074972 -0.722443 1.333252 8.200044 3.000851 0.803258 0.479793 -74.627739 -8.837411 25.271646 177.679171 -88.409151 -177.868707 -0.662551 1.201412 8.178179 -3.883153 -2.043023 1.001933 78.455381 -10.796301 4.220751 -176.626260 82.931926 -177.022721 -0.000000 -0.000000 -0.000000 0.393604 1.123787 -19.374475 -0.673719 0.786890 26.517615 0.000000 0.000000 -0.000000 -9.454086 0.948902 -15.692635 0.426818 -0.669281 18.018143 
4.642913 0.711124 1.788711 -2.853163 -10.661368 -0.837042 0.000000 0.000000 -0.000000 -0.151952 0.708257 4.424711 -0.655566 1.229373 8.205326 0.000000 0.000000 0.000000 -0.611531 1.262352 8.069213 0.996290 -2.464099 2.972708 -0.712379 1.345068 8.186590 3.031313 0.825398 0.478902 -74.683200 -8.601311 25.151467 177.179762 -88.616118 -177.372203 -0.657562 1.211938 8.175364 -3.916247 -2.057265 0.993872 78.396787 -10.776273 4.262018 -176.710411 82.871726 -177.102417 0.000000 -0.000000 -0.000000 0.430908 1.147258 -19.202686 -0.668049 0.780948 26.434739 0.000000 0.000000 -0.000000 -9.348576 0.958407 -15.572369 0.421032 -0.644871 17.955013 
